<?xml version="1.0"?>
<svg xmlns="http://www.w3.org/2000/svg" xmlns:xlink="http://www.w3.org/1999/xlink" version="1.1" id="Capa_1" x="0px" y="0px" viewBox="0 0 511.998 511.998" style="enable-background:new 0 0 511.998 511.998;" xml:space="preserve" width="512px" height="512px" class=""><g><path style="fill:#413E3E" d="M191.871,202.893c20.031,26.289-21.385,69.372-53.44,29.057  c-38.243-48.096-79.825-46.092-84.835-5.01c-4.979,40.828,59.592,39.948,74.917,70.641c13.926,27.888-44.626,49.211-31.498,106.713  c16.7,73.145,108.884,64.128,130.927,21.042c49.323-96.405,100.2-32.064,118.903-12.024c39.517,42.34,136.881-9.789,64.128-77.153  c-36.072-33.4-29.809-67.237-1.902-86.672c45.322-31.563,4.24-83.666-27.824-67.635c-8.535,4.268-15.531,18.036-32.064,22.545  c-14.42,3.933-30.943-4.606-33.066-17.869c-5.344-33.4,44.598-58.31,40.08-87.34c-6.68-42.919-69.471-50.267-74.147-6.179  c-5.103,48.115-25.281,68.303-57.346,52.271c-24.047-12.024-43.685-5.999-50.87,14.529  C166.821,179.848,183.855,192.373,191.871,202.893z" data-original="#D23C69" class="" data-old_color="#3F3D3D"/><path style="fill:#4C4747" d="M409.072,249.486c45.322-31.563,4.24-83.666-27.824-67.635c-8.535,4.267-15.531,18.036-32.064,22.545  c-2.849,0.777-5.767,0.941-8.652,0.805c-5.691,10.506-12.607,21.329-27.754,31.426c-22.044,14.696-56.78,3.34-56.78-36.739  s-41.416-44.088-51.436-18.036c-3.269,8.5-4.352,15.816-13.053,20.592c0.116,0.149,0.248,0.302,0.361,0.45  c20.031,26.289-21.385,69.372-53.44,29.057c-7.312-9.196-14.743-16.53-22.02-22.14c-28.25,7.234-40.15,33.497-32.669,56.398  c17.366,8.657,37.152,16.114,44.771,31.372c13.926,27.888-44.626,49.211-31.497,106.713c3.852,16.874,11.751,29.326,21.85,38.046  c46.948,25.135,83.747-35.223,105.07-82.133c20.04-44.088,78.789-36.123,100.867-2.672c22.044,33.4,67.006,27.079,69.471-8.684  c0.503-7.29,3.02-15.125,6.822-23.201C376.557,295.819,384.092,266.883,409.072,249.486z" data-original="#B4285A" class="" data-old_color="#504B4B"/><g>
	<path style="fill:#413E3E" d="M38.471,7.532C10.917,8.534-5.331,42.963,20.436,73.663c23.546,28.055,61.122,41.583,74.147,22.044   C108.459,74.893,81.601,5.963,38.471,7.532z" data-original="#D23C69" class="" data-old_color="#3F3D3D"/>
	<path style="fill:#413E3E" d="M186.424,23.474c-20.627,5.08-24.731,29.246-4.558,44.594c19.163,14.579,30.745,5.001,31.679-8.86   C214.084,51.212,206.876,18.438,186.424,23.474z" data-original="#D23C69" class="" data-old_color="#3F3D3D"/>
	<path style="fill:#413E3E" d="M435.6,68.283c-27.034,4.254-35.106,62.132-10.139,57.753   C450.428,121.657,480.21,61.263,435.6,68.283z" data-original="#D23C69" class="" data-old_color="#3F3D3D"/>
	<path style="fill:#413E3E" d="M502.516,488.17c13.021-27.937-42.123-52.847-52.583-21.162   C441.324,493.088,485.732,524.184,502.516,488.17z" data-original="#D23C69" class="" data-old_color="#3F3D3D"/>
</g><path d="M416.099,330.649c-15.696-14.533-23.471-29.729-22.484-43.946c0.826-11.893,7.663-22.636,19.772-31.068  c28.139-19.597,26.741-45.711,16.995-62.121c-11.646-19.607-34.198-27.506-52.459-18.377c-4.226,2.113-7.684,5.5-11.345,9.086  c-5.326,5.217-10.834,10.612-19.339,12.932c-5.583,1.522-12.136,0.479-17.1-2.724c-3.69-2.38-6.03-5.61-6.587-9.095  c-2.243-14.017,8.266-27.098,19.392-40.947c11.494-14.308,23.38-29.101,20.693-46.362c-4.378-28.129-29.188-42.767-50.322-42.246  c-21.214,0.517-36.401,14.817-38.693,36.429c-2.718,25.618-10.017,42.902-20.554,48.669c-6.763,3.701-15.504,2.923-25.98-2.315  c-14.969-7.485-28.995-8.962-40.562-4.272c-9.667,3.92-16.839,11.884-20.741,23.032c-7.139,20.4,5.698,34.779,14.192,44.295  c1.856,2.079,3.609,4.043,4.958,5.813c7.337,9.629,2.94,22.219-5.549,28.826c-13.168,10.252-27.259,2.081-36.055-8.981  c-23.44-29.479-50.201-43.475-71.576-37.439c-14.586,4.119-24.271,17.31-26.574,36.189c-3.521,28.876,20.747,40.486,42.157,50.729  c13.841,6.622,28.151,13.468,33.495,24.169c3.933,7.876-1.027,15.363-10.881,29.007c-12.37,17.127-29.31,40.582-21.219,76.024  c7.671,33.596,31.104,55.242,64.295,59.387c3.72,0.464,7.443,0.69,11.14,0.69c29.801,0,57.914-14.678,69.482-37.288  c14.92-29.161,30.897-45.074,47.491-47.295c22.751-3.045,44.326,20.622,55.916,33.337c1.203,1.32,2.317,2.542,3.337,3.635  c14.3,15.32,37.124,21.254,59.581,15.481c21.517-5.532,37.763-20.361,42.4-38.7C450.028,368.884,432.215,345.571,416.099,330.649z   M428.832,391.526c-3.291,13.015-15.397,23.686-31.594,27.85c-13.427,3.452-32.268,2.325-44.879-11.188  c-0.984-1.054-2.058-2.232-3.218-3.505c-13.438-14.745-38.437-42.19-68.992-38.1c-21.76,2.913-41.561,21.529-58.854,55.331  c-10.066,19.674-38.184,31.946-65.41,28.545c-26.563-3.316-45.345-20.754-51.529-47.841c-6.581-28.823,6.879-47.46,18.755-63.904  c9.986-13.827,20.313-28.124,12.141-44.49c-7.645-15.309-24.317-23.285-40.441-30.999C72.516,252.56,58.96,245.145,61.07,227.844  c0.902-7.396,4.149-20.292,15.762-23.57c1.896-0.536,3.906-0.797,6.009-0.797c14.419,0,33.196,12.319,49.75,33.137  c18.952,23.832,42.289,22.941,57.009,11.482c7.215-5.616,12.419-13.819,14.28-22.506c2.086-9.744-0.049-19.42-6.013-27.247  c-1.702-2.234-3.644-4.409-5.699-6.711c-9.328-10.45-15.149-18.138-11.224-29.351c2.471-7.061,6.583-11.8,12.22-14.086  c7.351-2.982,17.373-1.636,28.217,3.787c15.136,7.569,28.556,8.26,39.89,2.057c15.412-8.435,24.922-28.703,28.268-60.245  c1.493-14.08,10.519-22.685,24.143-23.017c14.772-0.372,32.072,9.879,35.135,29.557c1.669,10.72-7.674,22.35-17.564,34.661  c-12.096,15.056-25.804,32.12-22.511,52.711c1.239,7.745,5.951,14.609,13.268,19.33c8.561,5.522,19.467,7.238,29.178,4.59  c12.268-3.346,19.82-10.744,25.888-16.688c2.795-2.738,5.437-5.325,7.557-6.385c9.478-4.739,24.213-1.926,32.853,12.622  c6.771,11.397,6.996,28.454-12.671,42.151c-15.737,10.959-25.028,25.995-26.163,42.339c-0.915,13.182,3.071,33.596,27.256,55.991  C424.744,359.096,432.671,376.342,428.832,391.526z" data-original="#000000" class="active-path" style="fill:#1C1B1B" data-old_color="#1C1A1A"/><path d="M77.679,112.348c10.085-0.556,18.098-4.875,23.174-12.488c5.729-8.594,5.444-20.513,4.196-28.998  C103.447,59.97,99.306,48.14,93.388,37.55C79.63,12.93,59.524-0.725,38.228,0.03C23.163,0.578,9.96,9.574,3.769,23.507  C-3.857,40.671,0.237,61.22,14.72,78.477c17.248,20.552,41.337,33.932,60.724,33.932C76.195,112.409,76.941,112.389,77.679,112.348z   M26.209,68.834C15.497,56.07,12.232,41.402,17.477,29.597c3.904-8.786,11.865-14.236,21.297-14.579  c0.402-0.015,0.798-0.022,1.196-0.022c21.3,0,35.256,20.798,40.325,29.868c8.631,15.446,13.937,37.886,8.079,46.674  c-2.42,3.63-6.188,5.538-11.52,5.832C62.063,98.19,40.771,86.186,26.209,68.834z" data-original="#000000" class="active-path" style="fill:#1C1B1B" data-old_color="#1C1A1A"/><path d="M183.749,76.714c6.882,3.024,12.593,4.166,17.295,4.166c6.458,0,11.013-2.155,14.078-4.548  c6.531-5.1,9.433-13.989,7.762-23.777c-1.203-7.046-9.866-26.817-24.167-33.938c-7.044-3.506-14.448-3.455-21.411,0.15  c-10.97,5.681-17.302,15.874-16.938,27.265C160.781,58.993,169.521,70.463,183.749,76.714z M184.203,32.086  c2.682-1.39,5.097-1.403,7.828-0.042c8.559,4.261,15.369,18.945,16.067,23.035c0.716,4.195-0.129,7.809-2.208,9.432  c-2.847,2.224-8.87,1.652-16.107-1.528c-8.807-3.87-14.199-10.386-14.424-17.429C175.182,39.997,178.405,35.089,184.203,32.086z" data-original="#000000" class="active-path" style="fill:#1C1B1B" data-old_color="#1C1A1A"/><path d="M422.891,133.765c1.265,0,2.566-0.116,3.896-0.349c9.845-1.727,20.26-9.633,28.575-21.693  c8.089-11.731,11.973-24.419,10.389-33.942c-1.092-6.563-4.604-11.614-10.157-14.606c-5.368-2.893-12.478-3.67-21.131-2.307  c-11.937,1.878-22.004,11.469-27.619,26.311c-4.862,12.852-6.133,30.21,1.989,40.025  C412.391,131.504,417.289,133.765,422.891,133.765z M420.872,92.488c3.602-9.52,9.554-15.801,15.923-16.803  c13.055-2.052,13.859,2.749,14.159,4.557c2.088,12.55-14.418,36.236-26.758,38.4c-2.599,0.457-3.355-0.456-3.808-1  C417.407,114.038,416.744,103.398,420.872,92.488z" data-original="#000000" class="active-path" style="fill:#1C1B1B" data-old_color="#1C1A1A"/><path d="M505.671,461.742c-9.121-11.994-26.101-18.965-40.364-16.581c-10.943,1.83-18.922,8.751-22.467,19.489  c-6.121,18.542,7.773,38.137,24.59,44.805c4.32,1.713,8.594,2.543,12.706,2.543c12.219,0,22.995-7.339,29.206-20.668l0,0  C513.889,481.574,512.552,470.791,505.671,461.742z M495.747,484.995L495.747,484.995c-2.872,6.164-9.652,15.727-22.788,10.518  c-12.405-4.919-18.613-17.868-15.876-26.159c1.789-5.418,5.287-8.492,10.696-9.396c1.073-0.18,2.185-0.266,3.32-0.266  c8.176,0,17.581,4.49,22.632,11.132C497.278,475.487,497.956,480.254,495.747,484.995z" data-original="#000000" class="active-path" style="fill:#1C1B1B" data-old_color="#1C1A1A"/></g> </svg>
